# xmcd
#
# Track frame offsets: 
#        150
#        11402
#        24512
#        42397
#        54960
#        69340
#        85615
#        99255
#        114720
#        129870
#        144262
#        158952
#        174935
#        191210
#        206162
#        217682
#        231247
#
# Disc length: 3258 seconds
#
# Revision: 3
# Processed by: cddbd v1.5.1PL2 Copyright (c) Steve Scherf et al.
# Submitted via: ExactAudioCopy v0.95b4
#
DISCID=d70cb811
DTITLE=Charly McClain - Anthology [CD1]
DYEAR=1999
DGENRE=Country
TTITLE0=Men
TTITLE1=Sleepin' With The Radio On
TTITLE2=Surround Me With Love
TTITLE3=The Very Best Is You
TTITLE4=Radio Heart
TTITLE5=When It's Down To Me And You
TTITLE6=Paradise Tonight (w/ Mickey Gilley)
TTITLE7=Don't Touch Me There
TTITLE8=With Just One Look In Your Eyes (w/ Wayne Massey)
TTITLE9=The Right Stuff (w/ Mickey Gilley)
TTITLE10=Fly Into Love
TTITLE11=Take Me Back
TTITLE12=You're A Part Of Me
TTITLE13=I Hate The Way I Love It (w/ Johnny Rodriguez)
TTITLE14=Let's Put Our Love In Motion
TTITLE15=Make The World Go Away
TTITLE16=Lay Down
EXTD=
EXTT0=
EXTT1=
EXTT2=
EXTT3=
EXTT4=
EXTT5=
EXTT6=
EXTT7=
EXTT8=
EXTT9=
EXTT10=
EXTT11=
EXTT12=
EXTT13=
EXTT14=
EXTT15=
EXTT16=
PLAYORDER=
